<?xml version="1.0" standalone="no"?>
<!DOCTYPE svg PUBLIC "-//W3C//DTD SVG 20010904//EN"
 "http://www.w3.org/TR/2001/REC-SVG-20010904/DTD/svg10.dtd">
<svg version="1.0" xmlns="http://www.w3.org/2000/svg"
 width="187.000000pt" height="187.000000pt" viewBox="0 0 187.000000 187.000000"
 preserveAspectRatio="xMidYMid meet">
<metadata>
Created by potrace 1.14, written by Peter Selinger 2001-2017
</metadata>
<g transform="translate(0.000000,187.000000) scale(0.100000,-0.100000)"
fill="#000000" stroke="none">
<path d="M855 1432 c5 -10 0 -13 -21 -12 -47 3 -54 1 -54 -19 0 -10 -10 -26
-23 -35 -13 -10 -24 -27 -24 -39 -1 -12 -7 -23 -13 -25 -5 -2 -10 -10 -10 -18
0 -9 -4 -13 -9 -9 -5 3 -13 0 -17 -6 -4 -7 -3 -9 4 -5 6 3 13 2 17 -4 3 -5 1
-10 -5 -10 -14 0 -41 -26 -39 -37 3 -20 -2 -34 -11 -28 -9 5 -15 -15 -11 -37
0 -5 -6 -8 -14 -8 -8 0 -15 -7 -15 -15 0 -8 -4 -15 -10 -15 -5 0 -10 -9 -10
-20 0 -11 -4 -20 -10 -20 -5 0 -10 -5 -10 -11 0 -5 5 -7 11 -3 6 3 3 -6 -7
-20 -9 -15 -20 -23 -23 -17 -4 5 -11 -1 -18 -15 -8 -18 -8 -22 0 -17 9 5 9 3
0 -8 -6 -8 -12 -18 -13 -24 -1 -5 -6 -9 -10 -8 -5 2 -7 -7 -5 -18 3 -13 -3
-23 -18 -29 -21 -8 -21 -9 -2 -10 15 -1 16 -3 5 -7 -24 -10 -41 -31 -30 -38 5
-3 10 -12 10 -18 0 -7 -4 -6 -10 3 -5 8 -10 10 -10 4 0 -7 11 -22 25 -35 13
-13 25 -32 25 -41 0 -10 9 -22 20 -28 11 -6 20 -16 20 -23 0 -8 -4 -7 -11 3
-9 12 -10 12 -5 -3 3 -10 6 -23 6 -28 0 -5 9 -1 20 8 11 10 20 25 20 35 0 10
5 18 10 18 6 0 10 7 10 16 0 9 5 12 13 8 7 -5 6 0 -3 11 -9 11 -10 16 -2 11 7
-4 12 -1 12 8 0 9 8 16 18 17 11 0 13 2 4 6 -10 4 -8 9 7 20 12 8 21 21 21 29
0 8 5 14 11 14 5 0 8 3 6 8 -3 4 0 18 5 32 7 20 11 22 18 10 8 -12 10 -10 10
7 0 29 45 109 59 106 6 -2 11 8 11 22 0 14 3 25 8 25 4 0 13 9 20 21 9 13 9
18 2 14 -7 -4 -7 1 2 14 7 12 18 21 25 21 7 0 13 11 13 25 0 14 5 25 10 25 6
0 10 7 10 16 0 8 4 13 8 10 4 -2 9 5 9 17 1 11 9 25 18 29 8 5 15 16 15 23 0
8 5 15 10 15 6 0 10 8 10 18 0 9 12 28 25 41 26 24 32 41 14 41 -5 0 -8 4 -5
8 2 4 -11 8 -29 8 -18 0 -31 -4 -29 -8 8 -13 -11 -9 -25 5 -11 10 -13 10 -7 0
4 -7 3 -13 -1 -13 -5 0 -15 6 -22 13 -11 10 -12 9 -6 -1z"/>
<path d="M125 1411 c-3 -5 2 -16 10 -25 9 -8 17 -19 18 -23 1 -4 5 -7 9 -5 7
2 10 -20 7 -44 0 -3 9 -14 20 -23 12 -10 21 -27 21 -39 0 -11 7 -22 15 -26 8
-3 15 -15 15 -26 0 -11 5 -20 10 -20 6 0 10 -10 10 -22 0 -19 2 -20 10 -8 7
11 10 6 10 -20 0 -26 3 -31 10 -20 5 8 10 13 11 10 0 -3 2 -14 4 -24 2 -10 9
-22 15 -26 9 -6 9 -9 -1 -13 -10 -4 -10 -6 -1 -6 6 -1 12 -7 12 -15 0 -8 7
-17 16 -20 12 -4 15 -2 10 9 -3 8 -1 15 3 15 5 0 11 -5 13 -10 2 -6 9 -1 16
10 7 11 9 19 5 18 -9 -3 -13 5 -13 25 0 9 3 8 9 -2 6 -10 11 -5 16 18 4 18 13
35 21 38 8 3 11 9 8 14 -3 5 -1 9 3 9 5 0 14 9 21 21 11 17 11 20 0 14 -7 -5
2 7 19 25 18 18 30 36 27 41 -3 5 4 19 15 31 12 12 21 32 21 44 0 13 5 26 12
30 7 4 8 3 4 -4 -4 -7 -2 -12 3 -12 6 0 11 9 11 20 0 11 5 20 10 20 6 0 10 7
10 15 0 13 -26 15 -185 14 -107 -1 -183 -5 -179 -10 3 -5 0 -9 -5 -9 -6 0 -11
6 -11 13 0 8 -4 7 -10 -3 -6 -10 -10 -11 -10 -2 0 14 -56 17 -65 3z m25 -11
c0 -5 -2 -10 -4 -10 -3 0 -8 5 -11 10 -3 6 -1 10 4 10 6 0 11 -4 11 -10z m115
0 c-3 -5 -12 -10 -18 -10 -7 0 -6 4 3 10 19 12 23 12 15 0z"/>
<path d="M1200 1410 c18 -12 30 -13 30 -2 0 4 -10 9 -22 9 -18 2 -20 0 -8 -7z"/>
<path d="M1240 1405 c-7 -9 -18 -15 -24 -14 -21 3 -36 -1 -35 -8 4 -23 -2 -43
-11 -38 -6 4 -7 12 -4 18 5 9 3 9 -6 0 -11 -10 -11 -15 0 -28 7 -9 9 -15 4
-13 -5 2 -10 -1 -11 -5 -1 -5 -11 -17 -23 -27 -15 -13 -17 -19 -8 -23 10 -4
10 -6 1 -6 -7 -1 -13 -10 -13 -22 0 -15 -5 -19 -15 -15 -9 3 -15 0 -15 -10 0
-9 -5 -12 -12 -8 -9 5 -9 2 1 -9 9 -11 10 -17 2 -17 -6 0 -11 -10 -11 -22 0
-19 -2 -20 -11 -8 -8 12 -10 9 -6 -12 3 -23 -1 -30 -24 -40 -19 -8 -24 -15
-16 -20 9 -6 9 -8 0 -8 -7 0 -13 -12 -13 -26 0 -14 -4 -23 -10 -19 -9 6 -15
-16 -11 -39 1 -5 -6 -3 -15 5 -16 12 -17 12 -11 -3 3 -10 2 -18 -4 -18 -6 0
-7 -4 -4 -10 3 -5 1 -10 -4 -10 -6 0 -11 -11 -11 -25 0 -14 -5 -25 -11 -25
-19 0 -39 -28 -39 -55 0 -15 -4 -24 -10 -20 -5 3 -10 -1 -10 -9 0 -8 -5 -18
-12 -22 -7 -5 -8 -2 -3 7 7 12 5 12 -6 1 -12 -11 -12 -14 0 -21 11 -7 9 -10
-8 -16 -12 -4 -20 -12 -18 -18 2 -7 -2 -18 -10 -25 -7 -8 -11 -18 -8 -23 4 -5
1 -9 -5 -9 -6 0 -9 -4 -5 -9 3 -5 0 -13 -6 -17 -7 -4 -9 -3 -5 4 3 6 1 14 -6
18 -7 4 -10 4 -6 -1 4 -4 2 -17 -5 -29 -6 -11 -12 -25 -12 -31 -1 -14 -37 -55
-45 -50 -11 7 -8 -29 3 -36 5 -4 0 -10 -11 -13 -23 -8 -36 -32 -21 -41 5 -4 7
-11 4 -16 -4 -5 -1 -9 4 -9 6 0 11 -9 11 -19 0 -11 4 -23 10 -26 6 -3 7 1 4
12 -5 17 -5 17 6 0 6 -9 8 -22 5 -27 -3 -6 2 -10 12 -10 15 0 16 -2 3 -10 -10
-6 -11 -10 -2 -10 6 0 12 -7 12 -15 0 -8 5 -15 11 -15 5 0 7 -5 3 -12 -5 -8
-2 -9 11 -4 14 5 16 4 7 -7 -9 -10 -8 -14 3 -14 8 0 12 4 9 8 -2 4 3 14 11 23
9 9 15 21 14 28 -3 28 1 53 9 42 5 -9 11 -8 20 2 7 8 8 14 2 14 -16 0 -12 26
8 41 14 11 15 11 5 -1 -20 -22 -15 -32 5 -12 10 9 18 26 19 36 1 11 8 23 15
27 10 7 10 9 1 9 -9 0 -7 6 4 19 9 11 20 18 25 15 4 -3 8 4 8 16 0 24 22 50
41 50 8 0 6 5 -4 13 -16 11 -15 12 8 13 14 1 22 -2 19 -7 -3 -5 2 -12 10 -15
9 -3 16 -15 16 -25 0 -10 7 -19 15 -19 8 0 15 -9 15 -21 0 -11 4 -18 9 -15 4
3 8 -4 7 -17 -1 -14 4 -21 13 -19 12 3 12 1 0 -14 -9 -12 -9 -15 -1 -10 7 4
12 1 12 -8 0 -9 6 -16 13 -16 8 0 14 -7 15 -15 1 -8 3 -22 4 -30 1 -8 5 -12
10 -9 4 3 8 -1 8 -9 0 -8 7 -20 15 -27 13 -11 13 -15 3 -21 -11 -7 -11 -9 0
-9 7 0 10 -4 7 -10 -3 -5 3 -10 15 -10 12 0 18 -4 15 -10 -3 -5 -1 -10 4 -10
6 0 11 9 11 20 0 11 5 20 10 20 6 0 10 9 10 19 0 11 5 23 12 27 7 5 8 3 3 -6
-5 -9 -4 -11 3 -6 7 4 12 14 12 22 0 20 21 55 50 83 22 20 22 23 5 17 -19 -6
-19 -5 -2 8 9 7 17 18 17 23 0 6 7 16 15 23 9 7 13 15 11 18 -3 2 2 11 10 19
8 8 11 20 7 26 -4 6 0 8 10 4 12 -5 17 -1 17 13 0 11 6 20 13 20 8 0 7 4 -3
10 -8 5 -10 10 -4 10 5 0 16 16 24 35 8 19 20 35 27 35 7 0 13 8 13 18 1 20
23 52 36 52 6 0 11 10 11 22 1 13 7 24 13 26 5 2 10 12 10 23 0 10 5 19 10 19
6 0 10 9 10 21 0 15 5 19 16 15 8 -3 13 -2 9 3 -3 5 0 15 7 23 7 7 15 22 16
33 2 11 8 23 14 26 5 3 10 10 11 15 1 5 6 8 11 6 5 -2 3 5 -5 14 -12 16 -12
17 4 11 11 -4 17 -2 17 8 0 8 5 15 10 15 6 0 10 11 10 25 0 14 5 25 10 25 6 0
10 9 10 21 0 15 5 19 15 15 9 -3 15 -1 14 7 -3 25 1 38 11 32 6 -3 10 3 10 14
0 11 5 23 10 26 6 3 10 15 10 26 0 10 6 19 14 19 14 0 28 23 30 48 1 7 8 17
16 22 13 9 13 11 0 20 -11 7 -11 10 -2 10 7 0 10 5 6 11 -5 8 -10 6 -16 -5
-11 -19 -48 -22 -48 -3 0 7 -3 8 -8 2 -13 -19 -60 -17 -72 2 -10 15 -11 15 -6
1 3 -12 -1 -16 -15 -15 -10 1 -19 6 -19 12 0 5 -5 2 -11 -8 -6 -9 -15 -14 -21
-11 -6 4 -8 3 -4 -4 3 -6 -1 -17 -9 -25 -18 -18 -20 -31 -3 -21 6 4 3 -4 -8
-18 -10 -14 -22 -24 -26 -21 -7 4 -12 -20 -9 -39 0 -5 -4 -8 -9 -8 -5 0 -10
-7 -10 -15 0 -8 -4 -15 -10 -15 -5 0 -10 -9 -10 -20 0 -11 -7 -20 -16 -20 -8
0 -13 -4 -10 -9 3 -5 -1 -14 -9 -21 -8 -7 -12 -16 -9 -21 3 -5 0 -17 -5 -26
-6 -10 -11 -12 -11 -5 0 6 -4 12 -10 12 -5 0 -9 -3 -9 -7 4 -25 -2 -43 -13
-37 -8 5 -9 2 -5 -9 3 -9 0 -23 -8 -31 -8 -8 -15 -24 -15 -36 0 -12 -4 -18
-10 -15 -6 4 -7 12 -4 18 4 7 3 8 -2 4 -5 -5 -7 -10 -4 -11 3 -1 -3 -14 -13
-29 -9 -15 -18 -38 -19 -51 -1 -14 -6 -22 -10 -20 -4 3 -8 -1 -8 -9 0 -8 -7
-17 -15 -21 -8 -3 -15 -15 -15 -26 0 -12 -4 -18 -10 -15 -5 3 -10 -3 -10 -15
0 -14 -4 -19 -12 -14 -10 5 -10 4 -1 -6 9 -10 4 -20 -25 -47 -20 -19 -31 -32
-24 -28 6 3 12 1 12 -4 0 -6 -5 -11 -11 -11 -5 0 -7 -4 -4 -10 3 -5 1 -10 -5
-10 -6 0 -8 -4 -5 -10 4 -6 -5 -10 -19 -10 -14 0 -26 5 -26 11 0 5 -4 7 -10 4
-6 -4 -10 7 -10 24 0 17 -4 31 -10 31 -5 0 -10 10 -10 23 0 18 -2 19 -10 7 -7
-12 -11 -8 -16 17 -4 18 -10 30 -15 27 -5 -3 -9 0 -9 5 0 6 5 11 11 11 5 0 8
4 4 9 -3 5 -1 12 4 16 6 3 8 13 5 23 -5 14 -4 15 5 2 9 -13 12 -12 17 8 4 12
11 22 16 22 6 0 5 7 -2 16 -11 12 -11 15 1 12 8 -2 13 4 13 14 -1 10 2 16 6
13 4 -3 10 5 14 18 5 18 8 20 16 7 5 -8 10 -10 10 -4 0 5 -6 16 -12 23 -8 9
-8 11 -2 8 11 -6 25 13 29 38 0 6 7 9 15 7 11 -3 11 0 -1 14 -9 12 -9 15 -1
10 6 -4 13 -2 13 3 1 6 2 15 3 20 0 5 5 13 10 18 5 5 6 2 1 -6 -5 -9 -4 -12 3
-7 7 4 12 14 12 22 0 18 21 57 37 67 7 4 10 14 7 22 -4 8 1 18 10 21 9 3 16
13 16 21 0 8 4 11 10 8 5 -3 7 0 5 8 -7 17 33 69 46 61 5 -3 9 -2 8 3 -4 22 2
54 9 49 4 -2 8 5 8 18 0 14 -6 23 -18 23 -10 1 -18 -3 -18 -8 0 -6 4 -8 9 -4
5 3 12 2 14 -3 3 -4 -30 -7 -73 -8 -43 0 -76 4 -74 8 3 5 17 6 31 4 14 -3 23
-2 19 1 -13 14 -44 12 -56 -2z m140 -59 c0 -3 -4 -8 -10 -11 -5 -3 -10 -1 -10
4 0 6 5 11 10 11 6 0 10 -2 10 -4z m-670 -786 c0 -5 -5 -10 -11 -10 -5 0 -7 5
-4 10 3 6 8 10 11 10 2 0 4 -4 4 -10z"/>
<path d="M1316 1409 c4 -8 30 -6 38 2 3 3 -5 5 -19 5 -13 0 -22 -3 -19 -7z"/>
<path d="M1710 1409 c0 -5 5 -7 10 -4 6 3 10 8 10 11 0 2 -4 4 -10 4 -5 0 -10
-5 -10 -11z"/>
<path d="M1775 1410 c-3 -5 -1 -10 4 -10 6 0 11 5 11 10 0 6 -2 10 -4 10 -3 0
-8 -4 -11 -10z"/>
</g>
</svg>
